<?xml version="1.0" standalone="no"?>
<!DOCTYPE svg PUBLIC "-//W3C//DTD SVG 20010904//EN"
 "http://www.w3.org/TR/2001/REC-SVG-20010904/DTD/svg10.dtd">
<svg version="1.0" xmlns="http://www.w3.org/2000/svg"
 width="948.000000pt" height="533.000000pt" viewBox="0 0 948.000000 533.000000"
 preserveAspectRatio="xMidYMid meet">

<g transform="translate(0.000000,533.000000) scale(0.100000,-0.100000)"
fill="#000000" stroke="none">
<path d="M1505 3011 c-464 -463 -611 -605 -651 -624 -89 -45 -150 -51 -321
-35 -84 7 -153 11 -153 7 0 -4 65 -70 145 -147 173 -168 233 -204 344 -204 94
-1 164 25 224 81 33 31 204 279 538 779 269 403 489 735 489 737 0 3 -3 5 -7
5 -5 0 -278 -270 -608 -599z"/>
<path d="M2260 3201 c0 -9 48 -102 274 -530 l86 -163 0 -183 c0 -100 2 -184 4
-186 2 -2 59 -3 125 -1 l121 3 0 181 0 182 185 347 c102 191 185 350 185 353
0 3 -59 6 -130 6 l-131 0 -109 -224 c-60 -123 -114 -227 -119 -231 -6 -3 -60
93 -124 222 l-114 228 -127 3 c-76 1 -126 -1 -126 -7z"/>
<path d="M3317 3203 c-4 -3 -7 -244 -7 -535 l0 -528 380 0 381 0 -3 108 -3
107 -255 5 -255 5 0 105 0 105 213 3 213 2 -3 98 -3 97 -205 3 c-132 1 -206 6
-211 13 -9 16 -11 182 -1 196 6 9 70 13 242 15 l234 3 33 85 c51 134 93 120
-355 120 -214 0 -392 -3 -395 -7z"/>
<path d="M4429 3200 c-108 -18 -201 -84 -241 -170 -16 -33 -21 -66 -22 -125
-1 -71 2 -86 29 -134 36 -66 107 -115 222 -156 182 -65 234 -89 258 -117 27
-32 31 -58 13 -91 -23 -45 -32 -46 -270 -47 l-228 0 0 -110 0 -110 233 0 c246
0 304 8 388 50 95 49 143 145 137 275 -6 157 -65 219 -286 300 -179 65 -181
66 -213 93 -21 17 -29 33 -29 55 0 70 25 77 271 77 l199 0 0 110 0 110 -207
-1 c-115 -1 -229 -5 -254 -9z"/>
<path d="M5440 2675 l0 -535 313 0 c347 0 376 4 463 63 72 48 108 123 107 225
0 118 -39 189 -128 234 -22 11 -41 21 -42 22 -2 2 19 26 47 54 150 156 76 417
-130 461 -30 7 -170 11 -340 11 l-290 0 0 -535z m565 292 c57 -65 37 -160 -39
-185 -25 -8 -81 -12 -155 -10 l-116 3 -3 113 -3 113 147 -3 c145 -3 146 -3
169 -31z m20 -409 c61 -48 68 -137 14 -182 -35 -30 -95 -38 -239 -34 l-105 3
-3 118 -3 117 154 0 c143 0 156 -2 182 -22z"/>
<path d="M6715 3201 c-3 -6 -62 -176 -131 -378 -200 -586 -224 -656 -224 -670
0 -10 29 -13 123 -13 l123 0 28 98 c44 147 19 133 224 130 l177 -3 36 -110 35
-110 122 -5 c84 -3 122 -2 122 6 0 15 -41 139 -165 499 -59 171 -126 366 -149
435 l-43 125 -136 3 c-81 1 -138 -1 -142 -7z m205 -452 c32 -106 56 -197 54
-201 -8 -12 -244 -10 -244 2 0 9 102 353 115 389 3 8 8 11 11 8 3 -3 32 -92
64 -198z"/>
<path d="M7440 2673 l0 -538 120 3 120 3 2 309 3 308 240 -309 240 -309 98 0
97 0 -2 533 -3 532 -117 3 -118 3 0 -309 c0 -170 -3 -312 -7 -315 -3 -4 -13 3
-22 16 -8 12 -76 101 -150 197 -74 96 -175 228 -224 293 l-90 117 -93 0 -94 0
0 -537z"/>
<path d="M8537 3203 c-4 -3 -7 -244 -7 -535 l0 -528 120 0 120 0 0 153 0 153
60 59 60 59 18 -24 c19 -26 101 -141 213 -300 l74 -105 133 3 c72 1 132 6 132
10 0 4 -93 137 -205 295 -204 285 -206 288 -188 310 10 12 96 116 191 229 94
114 172 212 172 218 0 6 -47 10 -127 10 l-128 0 -195 -225 c-107 -124 -198
-225 -202 -225 -5 0 -8 101 -8 225 l0 225 -113 0 c-63 0 -117 -3 -120 -7z"/>
<path d="M315 2729 c-38 -4 -104 -19 -145 -34 -41 -14 -90 -30 -107 -36 -18
-5 -33 -13 -33 -17 0 -4 35 -23 77 -42 56 -25 98 -53 148 -101 l70 -66 135
-11 c204 -18 266 -16 290 8 20 20 27 75 12 95 -14 20 -108 93 -171 134 -55 35
-178 84 -200 80 -3 -1 -37 -5 -76 -10z"/>
<path d="M2367 3 c1305 -2 3441 -2 4745 0 1305 1 238 2 -2372 2 -2610 0 -3677
-1 -2373 -2z"/>
</g>
</svg>
