<svg width="111" height="48" viewBox="0 0 111 48" fill="none" xmlns="http://www.w3.org/2000/svg">
<path d="M5.75133 36.8803H8.01766C8.45987 36.8803 8.79153 36.604 8.79153 36.217C8.79153 35.8301 8.45987 35.5537 8.01766 35.5537H4.47998V38.2622L5.08802 37.2673C5.25385 37.0462 5.47495 36.8803 5.75133 36.8803Z" fill="white"/>
<path d="M5.75133 34.2245H8.07294C8.45987 34.2245 8.84681 34.0586 8.84681 33.727C8.84681 33.3953 8.51515 33.2295 8.07294 33.2295H4.47998V35.6064L5.08802 34.6114C5.25385 34.335 5.47495 34.2245 5.75133 34.2245Z" fill="white"/>
<path d="M0 0.231201V47.7688H47.5376V0.231201H0ZM16.6382 9.73872H25.1507C27.3618 9.73872 30.8994 10.0704 30.8994 13.4975C30.8994 15.1558 29.6834 16.3166 28.2462 16.7588C30.015 17.3668 30.8994 18.5829 30.8994 20.1859C30.8994 23.6683 27.5276 24 25.1507 24H22.2763V21.7337C22.2763 20.5176 23.3266 20.5176 23.3266 20.5176H25.9246C26.5326 20.5176 26.7537 20.0201 26.7537 20.0201L27.6934 18.196H23.3819C22.3869 18.3065 22.3316 19.4673 22.3316 19.4673V16.4824C22.3316 15.1558 23.4371 15.1005 23.4371 15.1005H26.6984C27.3618 15.1005 27.5829 14.7136 27.5829 14.7136L28.5778 12.8342H19.7336V24H18.5176H16.7487V9.73872H16.6382ZM8.07034 38.2613H4.47738H2.43216V31.8492H8.07034C9.23114 31.8492 11.1105 32.0151 11.1105 33.5075C11.1105 34.2814 10.4472 34.7789 9.67335 35C10.613 35.2764 11.1105 35.8291 11.1105 36.5477C11.1105 38.0954 9.34169 38.206 8.07034 38.2613ZM18.9598 38.2613L18.2964 37.1005H14.6482L15.2563 36.1055C15.4221 35.8844 15.6432 35.7738 15.9196 35.7738H17.4673L16.1407 33.397L13.3216 38.2613H10.8894L14.814 31.8492H17.4673L21.3919 38.2613H18.9598ZM26.0351 38.2613H22.5527C22.2763 38.2613 22.0552 38.1507 21.8894 37.9296L21.2814 36.9346H25.206C25.7035 36.9346 26.0351 36.7135 26.0351 36.2161V31.8492H28.0803V36.4372C28.1356 37.7638 27.1959 38.2613 26.0351 38.2613ZM35.9849 38.2613L35.3215 37.1005H31.6733L32.2813 36.1055C32.4472 35.8844 32.6683 35.7738 32.9447 35.7738H34.4924L33.1658 33.397L30.3467 38.2613H27.9145L31.8391 31.8492H34.4924L38.417 38.2613H35.9849ZM45.1054 36.3819C45.1054 37.7638 44.1657 38.206 43.0049 38.206H39.5225C39.2462 38.206 39.0251 38.0954 38.8592 37.8743L38.2512 36.8794H42.1758C42.6733 36.8794 43.0602 36.6583 43.0602 36.1608V31.794H45.1607V36.3819H45.1054Z" fill="white"/>
<path d="M106.104 27.8414L110.36 20.158H107.431L104.501 25.962L101.516 20.158H98.5864L102.898 27.8414" fill="white"/>
<path d="M64.2599 20.158H61.7725V27.8414H64.2599V20.158Z" fill="white"/>
<path d="M71.2207 20.158V24.4142L68.2911 20.158H65.3062V27.8414H67.7936V23.5298L67.8489 23.5851L70.7232 27.8414H73.7081V20.158H71.2207Z" fill="white"/>
<path d="M99.4109 27.8414L97.642 24.8564L97.5315 24.6353C97.9184 24.4695 98.1948 24.1931 98.4159 23.8615C98.6923 23.4745 98.8028 23.0876 98.8028 22.6454C98.8028 22.3137 98.7475 22.0374 98.637 21.7057C98.5264 21.4293 98.3606 21.1529 98.1395 20.9318C97.9184 20.7107 97.5867 20.4896 97.3104 20.3791C96.9234 20.2685 96.5918 20.158 96.2048 20.158H91.5063L92.1144 21.761H95.2651C95.4862 21.761 95.7074 21.8162 95.8732 21.9821C96.039 22.1479 96.0943 22.3137 96.0943 22.5348C96.0943 22.7559 96.039 22.977 95.8732 23.1429C95.7074 23.3087 95.4862 23.4745 95.2651 23.4745H92.7224L93.2752 25.0775H94.9335L96.5365 27.8966H99.4109V27.8414Z" fill="white"/>
<path d="M82.6087 25.4091C82.6087 24.9116 82.4429 23.4744 80.2318 23.0875C80.0107 23.0322 79.7343 23.0322 79.6238 23.0322C79.3474 23.0322 78.9052 22.9769 78.4077 23.0322H78.2972C78.0208 23.0322 77.3575 22.9769 77.3575 22.4242C77.3575 22.4242 77.3022 21.8714 78.1313 21.8161H82.3876V20.2131C82.3876 20.2131 78.7394 20.2131 77.5233 20.2131C76.6942 20.2131 74.87 20.2131 74.6489 21.982C74.6489 21.982 74.6489 21.982 74.6489 22.0373V22.0925C74.6489 22.1478 74.6489 22.3136 74.6489 22.3689C74.6489 22.7558 74.8148 23.8614 76.4178 24.3036C76.4178 24.3036 77.0258 24.5247 78.1313 24.6352C78.1313 24.6352 78.9605 24.6352 79.071 24.6352C79.071 24.6352 79.6791 24.6352 79.8449 25.0222C79.8449 25.0222 80.3424 25.9066 79.1816 26.183C79.1263 26.183 78.9052 26.2382 78.7394 26.183H75.1464V27.8413H79.1816C79.1816 27.8413 82.3323 27.8965 82.7193 25.8513C82.6087 25.6302 82.6087 25.4644 82.6087 25.4091Z" fill="white"/>
<path d="M53.48 20.1581V27.8415H53.8116H55.9674V24.746H58.1232C58.6207 24.746 58.7865 24.4143 58.7865 24.4143L59.5604 23.143H56.0227V22.6455C56.078 21.7611 56.9071 21.7058 56.9071 21.7058H59.5051C60.0579 21.7058 60.2237 21.4294 60.2237 21.4294L60.9976 20.1028H53.48V20.1581Z" fill="white"/>
<path d="M85.9281 22.7007V23.1429H89.4657L88.6919 24.4142C88.6919 24.4142 88.526 24.7459 88.0286 24.7459H85.8728V25.4645C85.8728 25.4645 85.8728 25.5198 85.8728 25.6303C85.9833 26.0172 86.3703 26.2383 86.7572 26.2383H89.8527H90.516V27.8414H83.3301V20.158H90.516V21.761H86.7572C86.315 21.761 85.9281 22.1479 85.9281 22.7007Z" fill="white"/>
</svg>
