<?xml version="1.0" encoding="UTF-8"?>
<svg version="1.1" xmlns="http://www.w3.org/2000/svg" width="948" height="533">
<path d="M0 0 C312.84 0 625.68 0 948 0 C948 175.89 948 351.78 948 533 C635.16 533 322.32 533 0 533 C0 357.11 0 181.22 0 0 Z " fill="#F8F8F8" transform="translate(0,0)"/>
<path d="M0 0 C10.333125 -0.12375 20.66625 -0.2475 31.3125 -0.375 C36.17415894 -0.45693604 36.17415894 -0.45693604 41.1340332 -0.54052734 C43.73126744 -0.55806715 46.32851828 -0.57335264 48.92578125 -0.5859375 C49.91519966 -0.60945786 49.91519966 -0.60945786 50.92460632 -0.63345337 C61.00164258 -0.86065354 69.04989322 0.50108435 76.67158508 7.54483032 C78 9.0625 78 9.0625 80 12 C80.5775 12.845625 81.155 13.69125 81.75 14.5625 C84.96827427 20.83813483 84.99992776 28.9039104 83.3515625 35.65625 C81.16661966 41.70686094 77.84606693 46.72686709 73 51 C72.34 51 71.68 51 71 51 C71 51.66 71 52.32 71 53 C72.2375 53.2784375 72.2375 53.2784375 73.5 53.5625 C79.64143402 56.08487469 84.41621982 60.18708285 87.5 66.125 C90.36074986 73.62169717 90.08936612 81.88198091 87.375 89.375 C83.70764005 97.27392912 79.02677315 101.73670687 71 105 C70.26985184 105.34231659 69.53970367 105.68463318 68.78742981 106.037323 C65.49498537 107.17441371 62.85579211 107.24036632 59.3737793 107.22705078 C58.3915689 107.22741239 58.3915689 107.22741239 57.38951588 107.2277813 C55.2842753 107.22629665 53.17939541 107.21110349 51.07421875 107.1953125 C49.78181274 107.19329834 48.48940674 107.19128418 47.15783691 107.18920898 C42.33435512 107.17875234 37.51092396 107.15082977 32.6875 107.125 C21.900625 107.08375 11.11375 107.0425 0 107 C0 71.69 0 36.38 0 0 Z " fill="#062FD7" transform="translate(544,212)"/>
<path d="M0 0 C6.27 0 12.54 0 19 0 C22.91652949 4.5692844 26.48984551 8.96235573 29.875 13.875 C32.74886335 17.98075062 35.65048507 21.87806871 39.0625 25.5625 C42.58147637 29.37648038 45.46186477 33.45631352 48.34814453 37.76391602 C51.93466669 43.05307621 55.91831768 47.98556047 60.01464844 52.88720703 C62.68276011 56.1295695 64.71239828 58.92901971 66 63 C66.66 63 67.32 63 68 63 C68 42.21 68 21.42 68 0 C75.92 0 83.84 0 92 0 C92 35.64 92 71.28 92 108 C85.4 108 78.8 108 72 108 C70.68 106.02 69.36 104.04 68 102 C66.98327026 100.63163945 65.95052322 99.27496082 64.8984375 97.93359375 C64.3310083 97.2075293 63.7635791 96.48146484 63.17895508 95.73339844 C62.28599731 94.59692871 62.28599731 94.59692871 61.375 93.4375 C60.11559285 91.82705167 58.85647979 90.21637331 57.59765625 88.60546875 C56.67557373 87.42670166 56.67557373 87.42670166 55.73486328 86.22412109 C53.4111675 83.24510779 51.10976174 80.24941171 48.8125 77.25 C45.35769568 72.7513796 41.87842131 68.27327626 38.375 63.8125 C37.74621948 63.01150879 37.74621948 63.01150879 37.10473633 62.19433594 C33.09973395 57.10504678 29.04604251 52.05755314 25 47 C24.67 67.13 24.34 87.26 24 108 C16.08 108 8.16 108 0 108 C0 72.36 0 36.72 0 0 Z " fill="#072ED9" transform="translate(744,212)"/>
<path d="M0 0 C9.57 0 19.14 0 29 0 C29.7425 2.59875 30.485 5.1975 31.25 7.875 C32.8839591 13.5040847 34.67312382 18.93601443 36.96484375 24.3359375 C38.60187249 28.54896997 39.87510064 32.8742444 41.16210938 37.20532227 C41.35740234 37.85299561 41.55269531 38.50066895 41.75390625 39.16796875 C42.00636108 40.02297974 42.00636108 40.02297974 42.26391602 40.89526367 C42.90698307 42.73403019 43.66302811 44.5324919 44.43652344 46.3203125 C45.8946628 49.75208585 47.11133117 53.1621239 48.26171875 56.70703125 C50.22697779 62.70450476 52.25927088 68.67556284 54.33203125 74.63671875 C54.90838587 76.30136903 55.4845566 77.96608299 56.06054688 79.63085938 C56.94411025 82.18395378 57.82955372 84.73632253 58.72045898 87.28686523 C59.59664383 89.79739434 60.46503164 92.31050526 61.33203125 94.82421875 C61.60070511 95.58772141 61.86937897 96.35122406 62.14619446 97.13786316 C63.34844012 100.6445184 64 103.25098861 64 107 C56.08 107 48.16 107 40 107 C37.10198906 99.75497264 34.4675674 92.40270221 32 85 C20.45 85 8.9 85 -3 85 C-4.88622666 90.69804495 -4.88622666 90.69804495 -6.76904297 96.3972168 C-7.00768066 97.11562744 -7.24631836 97.83403809 -7.4921875 98.57421875 C-7.85352783 99.66609497 -7.85352783 99.66609497 -8.22216797 100.7800293 C-9.07484438 103.21360952 -10.04231819 105.60579548 -11 108 C-19.25 108 -27.5 108 -36 108 C-35.33637611 104.01825665 -34.85714057 101.20764617 -33.4765625 97.609375 C-33.1775 96.81660156 -32.8784375 96.02382813 -32.5703125 95.20703125 C-32.25835938 94.39621094 -31.94640625 93.58539063 -31.625 92.75 C-29.47404441 87.12652712 -27.51207403 81.51554372 -25.82177734 75.73632812 C-24.17197677 70.24287453 -22.31907563 64.81421623 -20.5 59.375 C-19.91412109 57.6115625 -19.91412109 57.6115625 -19.31640625 55.8125 C-18.93355469 54.66523438 -18.55070313 53.51796875 -18.15625 52.3359375 C-17.81400391 51.31032715 -17.47175781 50.2847168 -17.11914062 49.22802734 C-16.29790657 46.85927589 -15.44867395 44.516006 -14.5612793 42.17236328 C-12.90238632 37.78121444 -11.37574079 33.3496186 -9.86328125 28.90625 C-9.57897751 28.07411987 -9.29467377 27.24198975 -9.00175476 26.38464355 C-8.10421827 23.75680921 -7.20833167 21.12841594 -6.3125 18.5 C-5.69997929 16.70569178 -5.08735011 14.91142059 -4.47460938 13.1171875 C-2.98161711 8.74528593 -1.49086283 4.37263048 0 0 Z " fill="#052ED6" transform="translate(671,212)"/>
<path d="M0 0 C7.92 0 15.84 0 24 0 C24 14.85 24 29.7 24 45 C28.85796029 40.14203971 33.43860952 35.13156429 38 30 C38.5775 29.3503125 39.155 28.700625 39.75 28.03125 C43.81774769 23.41592089 47.78981778 18.72118192 51.74169922 14.0065918 C52.64084721 12.9379159 53.55229529 11.8794993 54.47412109 10.83032227 C56.08488156 8.95409899 56.08488156 8.95409899 57.65478516 6.60522461 C60.44465237 2.863178 62.41683917 0.36905654 67.07592773 -0.71704102 C70.5924955 -0.88480992 73.98717538 -0.78832444 77.5 -0.5625 C78.70398438 -0.52189453 79.90796875 -0.48128906 81.1484375 -0.43945312 C84.10318406 -0.33392646 87.04944217 -0.18648189 90 0 C89.13732719 4.36383336 86.75005691 6.98459099 83.875 10.25 C83.37508545 10.82919189 82.8751709 11.40838379 82.36010742 12.00512695 C79.69769488 15.08355489 77.00365352 18.13419589 74.3125 21.1875 C71.14769133 24.77978283 68.17309786 28.50686872 65.19921875 32.2578125 C61.20826654 37.2340975 57.09841113 42.11214083 53 47 C54.31310772 49.75844074 55.77058503 52.23329338 57.5390625 54.72265625 C58.03277344 55.42003906 58.52648437 56.11742187 59.03515625 56.8359375 C59.55980469 57.57070313 60.08445312 58.30546875 60.625 59.0625 C61.43904297 60.20912109 61.43904297 60.20912109 62.26953125 61.37890625 C65.7668785 66.29679121 69.30628014 71.18265106 72.8671875 76.0546875 C93 103.85714286 93 103.85714286 93 107 C70.2473972 109.35072457 70.2473972 109.35072457 63.83496094 105.80175781 C60.34699085 102.54837686 58.28249175 98.47210092 56.18652344 94.23779297 C54.08095007 90.26666427 51.34045972 86.74256251 48.6875 83.125 C44.69300633 77.4828015 40.76612527 71.79785074 37 66 C31.99193728 68.28323986 28.63500609 71.11076402 26 76 C25.01069388 81.51005939 25.01777157 86.91691131 25.0625 92.5 C25.04937291 94.00523909 25.03312402 95.51045436 25.01367188 97.015625 C24.96727315 100.67910673 24.98508115 104.33422663 25 108 C16.75 108 8.5 108 0 108 C0 72.36 0 36.72 0 0 Z " fill="#072FD5" transform="translate(853,212)"/>
<path d="M0 0 C26.4 0 52.8 0 80 0 C78.94717781 4.21128876 77.52805591 8.13310636 76 12.1875 C75.59007812 13.29254883 75.59007812 13.29254883 75.171875 14.41992188 C73.12394146 19.87605854 73.12394146 19.87605854 72 21 C70.52645652 21.09304018 69.04849409 21.11746265 67.57202148 21.11352539 C66.63112167 21.11344986 65.69022186 21.11337433 64.72080994 21.11329651 C63.69790359 21.10813522 62.67499725 21.10297394 61.62109375 21.09765625 C60.57929459 21.0962413 59.53749542 21.09482635 58.46412659 21.09336853 C55.12188906 21.0877508 51.77971743 21.0751953 48.4375 21.0625 C46.17773534 21.05748728 43.91796963 21.05292398 41.65820312 21.04882812 C36.10542266 21.03862456 30.55278548 21.01905264 25 21 C25 28.26 25 35.52 25 43 C38.86 43 52.72 43 67 43 C67 49.6 67 56.2 67 63 C53.14 63.33 39.28 63.66 25 64 C24.67 70.93 24.34 77.86 24 85 C41.16 85 58.32 85 76 85 C76 92.59 76 100.18 76 108 C50.92 108 25.84 108 0 108 C0 72.36 0 36.72 0 0 Z " fill="#0830D5" transform="translate(331,212)"/>
<path d="M0 0 C0.9445253 0.00141495 1.8890506 0.0028299 2.86219788 0.00428772 C5.85738388 0.00985265 8.85249312 0.02239858 11.84765625 0.03515625 C13.88736871 0.04017579 15.92708234 0.0447379 17.96679688 0.04882812 C22.94796951 0.05895658 27.92897769 0.07853872 32.91015625 0.09765625 C32.91015625 7.35765625 32.91015625 14.61765625 32.91015625 22.09765625 C29.9246875 22.15824219 26.93921875 22.21882813 23.86328125 22.28125 C20.97067801 22.34306473 18.07811292 22.40644194 15.18554688 22.4699707 C13.17581582 22.51327269 11.1660491 22.55495113 9.15625 22.5949707 C6.26681777 22.6527879 3.37756427 22.71644949 0.48828125 22.78125 C-0.40977234 22.79796249 -1.30782593 22.81467499 -2.23309326 22.83189392 C-3.49394745 22.86181175 -3.49394745 22.86181175 -4.78027344 22.89233398 C-5.886138 22.91565041 -5.886138 22.91565041 -7.01434326 22.93943787 C-9.13695661 23.10124773 -11.04397631 23.52175773 -13.08984375 24.09765625 C-13.25358731 25.48947655 -13.3690494 26.88701493 -13.46484375 28.28515625 C-13.53445313 29.06246094 -13.6040625 29.83976562 -13.67578125 30.640625 C-12.93939075 33.72855581 -11.4385263 35.08070928 -8.94433594 36.97045898 C-5.67388138 38.95830637 -2.18157587 39.96831798 1.47265625 41.03515625 C15.02531412 45.28458985 30.4086632 50.20446507 37.91015625 63.09765625 C40.64953449 73.20684563 40.02296621 84.93565008 34.91015625 94.09765625 C34.25015625 95.08765625 33.59015625 96.07765625 32.91015625 97.09765625 C32.25015625 97.09765625 31.59015625 97.09765625 30.91015625 97.09765625 C30.41515625 98.58265625 30.41515625 98.58265625 29.91015625 100.09765625 C27.87109375 101.4140625 27.87109375 101.4140625 25.28515625 102.66015625 C24.44726562 103.07394531 23.609375 103.48773438 22.74609375 103.9140625 C15.32872167 107.00974258 9.05855083 107.36935987 1.0703125 107.29296875 C-0.05178116 107.29013885 -1.17387482 107.28730896 -2.32997131 107.28439331 C-5.89587293 107.273244 -9.46151869 107.24814876 -13.02734375 107.22265625 C-15.45247032 107.21261968 -17.87760084 107.20349501 -20.30273438 107.1953125 C-26.2319475 107.17502782 -32.16061092 107.13586828 -38.08984375 107.09765625 C-38.08984375 99.83765625 -38.08984375 92.57765625 -38.08984375 85.09765625 C-34.73183594 85.04867187 -31.37382812 84.9996875 -27.9140625 84.94921875 C-24.66735313 84.89523297 -21.42071852 84.837916 -18.17407227 84.78027344 C-15.91501416 84.74195404 -13.65589443 84.70710644 -11.39672852 84.67578125 C-8.15228218 84.63019518 -4.90826127 84.57218987 -1.6640625 84.51171875 C-0.65147873 84.50016754 0.36110504 84.48861633 1.40437317 84.47671509 C2.34512192 84.4568454 3.28587067 84.43697571 4.25512695 84.41650391 C5.08341507 84.40318024 5.91170319 84.38985657 6.76509094 84.37612915 C9.20611758 84.22026866 9.20611758 84.22026866 11.91015625 82.09765625 C12.50178019 79.81016332 12.50178019 79.81016332 12.47265625 77.22265625 C12.51519531 76.35898437 12.55773437 75.4953125 12.6015625 74.60546875 C12.09492677 71.83610979 12.09492677 71.83610979 9.33203125 69.953125 C5.83705128 68.058016 2.33983348 66.58950295 -1.40234375 65.28515625 C-7.52825304 63.07350576 -13.57462455 60.72024806 -19.58984375 58.22265625 C-20.33790283 57.91223389 -21.08596191 57.60181152 -21.85668945 57.28198242 C-23.60193601 56.5559418 -25.34602694 55.82712417 -27.08984375 55.09765625 C-27.08984375 54.43765625 -27.08984375 53.77765625 -27.08984375 53.09765625 C-27.8478125 52.86046875 -28.60578125 52.62328125 -29.38671875 52.37890625 C-32.5528473 50.87819792 -33.51957815 49.5484026 -35.33984375 46.59765625 C-35.84 45.80359375 -36.34015625 45.00953125 -36.85546875 44.19140625 C-40.81214579 37.48008064 -39.69664323 27.89203895 -38.734375 20.2890625 C-36.99009225 13.72166234 -32.3673473 9.15539781 -27.08984375 5.09765625 C-18.49293668 0.34776695 -9.61626155 -0.05487603 0 0 Z " fill="#082FD5" transform="translate(456.08984375,211.90234375)"/>
<path d="M0 0 C-1.38062699 3.86436801 -3.16717273 6.86404201 -5.5625 10.1875 C-10.23586377 16.78350636 -14.6537973 23.53756973 -19.0625 30.3125 C-25.47979948 40.16912246 -31.96145882 49.97938938 -38.51049805 59.74926758 C-41.36112883 64.00920705 -44.19542578 68.27358979 -46.9296875 72.609375 C-47.56293945 73.61339355 -47.56293945 73.61339355 -48.20898438 74.63769531 C-49.2795688 76.34758183 -50.33953222 78.0641063 -51.3984375 79.78125 C-51.92695313 80.5134375 -52.45546875 81.245625 -53 82 C-53.66 82 -54.32 82 -55 82 C-55.27070313 82.72832031 -55.54140625 83.45664063 -55.8203125 84.20703125 C-60.24846055 94.69089169 -68.17976387 104.31637684 -74.49658203 113.75292969 C-76.33408707 116.49934027 -78.16735296 119.24855608 -79.99951172 121.99853516 C-80.82736287 123.24079677 -81.65580512 124.48266469 -82.48486328 125.72412109 C-84.38475641 128.56973196 -86.2756456 131.42022196 -88.15234375 134.28125 C-102.74157941 156.45912839 -102.74157941 156.45912839 -116 160 C-118.87995441 160.36761582 -121.72382531 160.46032582 -124.625 160.5 C-125.35589844 160.54125 -126.08679688 160.5825 -126.83984375 160.625 C-136.65358916 160.76059579 -144.31534484 155.88104188 -151.22433472 149.30551147 C-154.24682859 146.31849664 -157.19087128 143.26098785 -160.125 140.1875 C-161.94621276 138.30877272 -163.77173734 136.43435353 -165.59909058 134.56159973 C-166.72550863 133.4041558 -167.84754774 132.24243011 -168.96463013 131.07597351 C-171.6925816 128.1647878 -171.6925816 128.1647878 -175 126 C-175 125.34 -175 124.68 -175 124 C-172.89590361 123.97298592 -170.79170822 123.95359777 -168.6875 123.9375 C-167.51574219 123.92589844 -166.34398437 123.91429687 -165.13671875 123.90234375 C-162 124 -162 124 -159 125 C-144.67982397 126.21060257 -132.60171363 125.26563186 -120.55859375 116.953125 C-119 116 -119 116 -117 116 C-116.731875 115.360625 -116.46375 114.72125 -116.1875 114.0625 C-115 112 -115 112 -112 111 C-111.32652202 109.67009412 -110.66089264 108.33620475 -110 107 C-108.08203125 105.140625 -108.08203125 105.140625 -105.8125 103.25 C-102.8890185 100.8129121 -100.33842425 98.28411331 -97.8762207 95.39428711 C-93.90840119 90.83001529 -89.68798545 86.56110263 -85.3984375 82.30078125 C-84.59894684 81.50270554 -83.79945618 80.70462982 -82.97573853 79.88237 C-80.44451975 77.35669936 -77.90983531 74.83454043 -75.375 72.3125 C-73.666434 70.60895728 -71.95809856 68.90518329 -70.25 67.20117188 C-67.11909888 64.07840153 -63.98690376 60.95694261 -60.85302734 57.8371582 C-56.08776057 53.09221103 -51.33687263 48.33375604 -46.60591125 43.55461121 C-43.76114835 40.68312442 -40.9111078 37.81690043 -38.06079102 34.95092773 C-36.55478597 33.43478344 -35.05056892 31.91686114 -33.5480957 30.3972168 C-31.37655263 28.2015481 -29.19873134 26.01228462 -27.01953125 23.82421875 C-26.34557816 23.13994308 -25.67162506 22.45566742 -24.97724915 21.75065613 C-24.04068733 20.81386772 -24.04068733 20.81386772 -23.08520508 19.8581543 C-22.53625076 19.30475876 -21.98729645 18.75136322 -21.42170715 18.18119812 C-20 17 -20 17 -18 17 C-17.7421875 16.41734375 -17.484375 15.8346875 -17.21875 15.234375 C-15.90165983 12.8197097 -14.44911616 11.18259823 -12.5 9.25 C-11.8915625 8.63640625 -11.283125 8.0228125 -10.65625 7.390625 C-9 6 -9 6 -7 6 C-6.731875 5.38125 -6.46375 4.7625 -6.1875 4.125 C-4.67436553 1.41728569 -3.21502868 0 0 0 Z " fill="#E8234B" transform="translate(212,172)"/>
<path d="M0 0 C8.25 0 16.5 0 25 0 C28.75656222 6.88703074 32.4391718 13.79079384 35.9375 20.8125 C36.43080811 21.80165405 36.43080811 21.80165405 36.93408203 22.81079102 C38.70928293 26.37969346 40.4678656 29.95626382 42.21484375 33.5390625 C42.75733765 34.64350708 42.75733765 34.64350708 43.31079102 35.77026367 C44.00783785 37.18978301 44.69992894 38.61174912 45.38647461 40.03637695 C46.98715915 43.65869787 46.98715915 43.65869787 50 46 C50.16870605 45.4416748 50.33741211 44.88334961 50.51123047 44.30810547 C52.22090935 38.89126718 54.36222384 34.07577896 57.125 29.125 C61.08165018 21.86454692 64.68949486 14.4811517 68.16845703 6.98095703 C68.52536621 6.21380371 68.88227539 5.44665039 69.25 4.65625 C69.72179687 3.63241211 69.72179687 3.63241211 70.203125 2.58789062 C71 1 71 1 72 0 C73.92667507 -0.08748207 75.85651861 -0.10697334 77.78515625 -0.09765625 C78.95498047 -0.09443359 80.12480469 -0.09121094 81.33007812 -0.08789062 C82.56177734 -0.07951172 83.79347656 -0.07113281 85.0625 -0.0625 C86.91584961 -0.05573242 86.91584961 -0.05573242 88.80664062 -0.04882812 C91.87114117 -0.03699608 94.93554721 -0.02051173 98 0 C96.44229602 5.47096032 94.53082061 10.04773475 91.39648438 14.7890625 C88.52219818 19.33968065 86.19682048 24.21059496 83.75 29 C79.36945302 37.50873973 74.89180966 45.92448789 70.09765625 54.20703125 C69.77700195 54.79532715 69.45634766 55.38362305 69.12597656 55.98974609 C68.28235155 57.49590575 67.37772947 58.96817169 66.44433594 60.42041016 C60.85263148 69.92763672 61.1049738 79.04799788 61.125 89.75 C61.10683711 91.52607098 61.08602329 93.30211692 61.0625 95.078125 C61.00623365 99.3865201 61.00426732 103.69000303 61 108 C52.75 108 44.5 108 36 108 C36.020625 105.35871094 36.04125 102.71742188 36.0625 99.99609375 C36.05524418 97.38434822 36.03434171 94.77303405 36.01220703 92.16137695 C36.0041894 90.37232173 36.00994266 88.58314151 36.03076172 86.79418945 C36.17111694 73.61926622 34.10982541 65.06274991 27 54 C26.01904438 52.25970157 25.05419705 50.51017722 24.109375 48.75 C23.63306641 47.87988281 23.15675781 47.00976562 22.66601562 46.11328125 C18.29856179 37.9518259 14.14539262 29.67540088 9.93896484 21.43017578 C8.67437049 18.95267092 7.40759049 16.47629291 6.140625 14 C5.75416809 13.24066162 5.36771118 12.48132324 4.96954346 11.69897461 C4.60866638 10.99393799 4.24778931 10.28890137 3.87597656 9.5625 C3.4034848 8.63630859 3.4034848 8.63630859 2.92144775 7.69140625 C2.04013279 6.0736676 1.02188279 4.53282418 0 3 C0 2.01 0 1.02 0 0 Z " fill="#052ED6" transform="translate(226,212)"/>
<path d="M0 0 C1.06105957 0.01023193 2.12211914 0.02046387 3.21533203 0.03100586 C10.80191506 0.23767848 16.72222952 1.1586123 23.0625 5.5625 C23.91457031 6.11679687 24.76664063 6.67109375 25.64453125 7.2421875 C28.17462239 8.94914554 30.6235293 10.72823278 33.0625 12.5625 C33.83207031 13.13871094 34.60164063 13.71492188 35.39453125 14.30859375 C36.75720801 15.33244277 38.11590803 16.36162828 39.46875 17.3984375 C41.06924466 18.63520907 41.06924466 18.63520907 43.0625 19.5625 C43.0895043 21.02073212 43.10889787 22.47910675 43.125 23.9375 C43.13660156 24.74960937 43.14820312 25.56171875 43.16015625 26.3984375 C43.0625 28.5625 43.0625 28.5625 42.0625 30.5625 C41.4025 30.5625 40.7425 30.5625 40.0625 30.5625 C39.5675 32.0475 39.5675 32.0475 39.0625 33.5625 C29.43299141 33.79299356 20.16002397 33.44555852 10.625 32.0390625 C7.72735233 31.65143858 5.03486171 31.53031106 2.125 31.5 C-2.89707716 30.98637847 -5.36237673 27.49048168 -8.60546875 23.91796875 C-12.2235154 20.26355983 -16.45889292 18.00942109 -20.9375 15.5625 C-21.80246094 15.02753906 -22.66742188 14.49257813 -23.55859375 13.94140625 C-26.05543163 12.49414226 -28.0981104 11.96812709 -30.9375 11.5625 C-30.9375 10.5725 -30.9375 9.5825 -30.9375 8.5625 C-29.64704304 7.97649539 -28.35503112 7.39391538 -27.0625 6.8125 C-26.34320312 6.48765625 -25.62390625 6.1628125 -24.8828125 5.828125 C-23.91085938 5.41046875 -22.93890625 4.9928125 -21.9375 4.5625 C-21.23391357 4.22806885 -20.53032715 3.8936377 -19.80541992 3.54907227 C-13.11691135 0.55819965 -7.28501554 -0.1055883 0 0 Z " fill="#E8244E" transform="translate(33.9375,259.4375)"/>
<path d="M0 0 C4.30609894 -0.09216383 8.60873719 -0.1716866 12.91503906 -0.21972656 C14.37772252 -0.23976332 15.84032666 -0.26700104 17.30273438 -0.30175781 C19.4129601 -0.35063225 21.52212136 -0.37304659 23.6328125 -0.390625 C24.90012207 -0.41157227 26.16743164 -0.43251953 27.47314453 -0.45410156 C31.6345834 0.08170602 33.75487212 1.39305047 37 4 C39.44181169 7.7158004 39.14911921 11.33227658 38.97265625 15.62109375 C37.28500222 19.74872951 35.04476888 22.07143853 31 24 C25.6677743 24.73138997 20.42125783 24.56718281 15.0625 24.375 C13.60096634 24.34486529 12.1393729 24.31749563 10.67773438 24.29296875 C7.11579794 24.23235724 3.56223875 24.11497961 0 24 C0 16.08 0 8.16 0 0 Z " fill="#EAF0F8" transform="translate(569,275)"/>
<path d="M0 0 C4.37566252 -0.10804105 8.74865081 -0.18735287 13.125 -0.25 C14.3625 -0.28351563 15.6 -0.31703125 16.875 -0.3515625 C28.34479925 -0.47489367 28.34479925 -0.47489367 33 4 C35.11052721 7.64545609 35.43413048 10.83234735 35 15 C33.27943249 18.78524853 31.86767532 20.53297908 28 22 C24.97558594 22.22705078 24.97558594 22.22705078 21.484375 22.1953125 C19.60878906 22.18564453 19.60878906 22.18564453 17.6953125 22.17578125 C16.39335938 22.15902344 15.09140625 22.14226562 13.75 22.125 C12.43257812 22.11597656 11.11515625 22.10695312 9.7578125 22.09765625 C6.50513084 22.07408609 3.25254256 22.03821525 0 22 C0 14.74 0 7.48 0 0 Z " fill="#F0F4F9" transform="translate(569,233)"/>
<path d="M0 0 C2.57150519 3.05343701 3.69371367 5.69940205 4.71875 9.54296875 C5.15767578 11.15461914 5.15767578 11.15461914 5.60546875 12.79882812 C5.90066406 13.91708984 6.19585938 15.03535156 6.5 16.1875 C7.09161199 18.38989835 7.68532801 20.59173269 8.28125 22.79296875 C8.56613281 23.84790527 8.85101562 24.9028418 9.14453125 25.98974609 C10.12476907 29.43904184 11.25117046 32.81599218 12.46679688 36.1887207 C13 38 13 38 13 41 C4.75 41 -3.5 41 -12 41 C-11.2768305 35.93781352 -10.45359849 31.7178398 -9.00390625 26.89453125 C-8.81030014 26.24804123 -8.61669403 25.60155121 -8.41722107 24.93547058 C-8.01031874 23.58100234 -7.60095089 22.2272725 -7.18920898 20.87426758 C-6.56155549 18.80939273 -5.94332384 16.74186296 -5.32617188 14.67382812 C-2.00674075 3.65915133 -2.00674075 3.65915133 0 0 Z " fill="#E3EAF6" transform="translate(685,238)"/>
<path d="M0 0 C6.27 0 12.54 0 19 0 C20.32 1.32 21.64 2.64 23 4 C22.67 4.66 22.34 5.32 22 6 C21.67 5.67 21.34 5.34 21 5 C15.06 5 9.12 5 3 5 C2.67 38.33 2.34 71.66 2 106 C1.67 106 1.34 106 1 106 C0.67 71.02 0.34 36.04 0 0 Z " fill="#1537EB" transform="translate(744,212)"/>
<path d="M0 0 C5.63914151 -0.20139791 10.90844476 0.21230075 16.5 1 C25.01752523 2.18934733 33.41588834 2.19123021 42 2 C41.67 2.99 41.34 3.98 41 5 C41.99 5.66 42.98 6.32 44 7 C41.57933169 8.21033415 40.01833058 8.12922803 37.31640625 8.1328125 C36.38892578 8.13410156 35.46144531 8.13539063 34.50585938 8.13671875 C33.53455078 8.13285156 32.56324219 8.12898438 31.5625 8.125 C30.11133789 8.13080078 30.11133789 8.13080078 28.63085938 8.13671875 C27.70208984 8.13542969 26.77332031 8.13414062 25.81640625 8.1328125 C24.96506104 8.13168457 24.11371582 8.13055664 23.23657227 8.12939453 C21 8 21 8 18 7 C15.77425665 6.77548542 13.54418481 6.59217122 11.3125 6.4375 C9.54326172 6.31181641 9.54326172 6.31181641 7.73828125 6.18359375 C6.83464844 6.12300781 5.93101563 6.06242187 5 6 C4.67 6.66 4.34 7.32 4 8 C4 6.68 4 5.36 4 4 C5.32 3.67 6.64 3.34 8 3 C5.36 2.34 2.72 1.68 0 1 C0 0.67 0 0.34 0 0 Z " fill="#F7EAF3" transform="translate(32,290)"/>
<path d="M0 0 C26.07 0 52.14 0 79 0 C78.00424757 3.98300973 76.65362053 7.26137967 75 11 C74 8 74 8 76 2 C50.92 2 25.84 2 0 2 C0 1.34 0 0.68 0 0 Z " fill="#1E38BF" transform="translate(332,212)"/>
<path d="M0 0 C0.99 0 1.98 0 3 0 C3 12.54 3 25.08 3 38 C10.26 38 17.52 38 25 38 C25 26.45 25 14.9 25 3 C25.33 3 25.66 3 26 3 C26 15.21 26 27.42 26 40 C17.75 40 9.5 40 1 40 C0.67 26.8 0.34 13.6 0 0 Z " fill="#394FB9" transform="translate(261,280)"/>
<path d="M0 0 C9.24 0 18.48 0 28 0 C28 0.33 28 0.66 28 1 C20.08 1 12.16 1 4 1 C4 21.79 4 42.58 4 64 C3.34 64 2.68 64 2 64 C1.34 62.35 0.68 60.7 0 59 C0.66 59 1.32 59 2 59 C1.89255583 51.60257139 1.77993416 44.20524087 1.66066074 36.80799294 C1.60544377 33.37333017 1.55202577 29.93865887 1.50268555 26.50390625 C1.44591293 22.55720111 1.38137602 18.61064158 1.31640625 14.6640625 C1.29969376 13.42757965 1.28298126 12.1910968 1.26576233 10.91714478 C1.24581711 9.77611298 1.22587189 8.63508118 1.20532227 7.45947266 C1.18977798 6.451315 1.1742337 5.44315735 1.15821838 4.40444946 C1.1551345 1.98733556 1.1551345 1.98733556 0 0 Z " fill="#B0BDCE" transform="translate(808,211)"/>
<path d="M0 0 C0.495 0.99 0.495 0.99 1 2 C0.34 2 -0.32 2 -1 2 C-1 2.66 -1 3.32 -1 4 C-16.18 4.33 -31.36 4.66 -47 5 C-47 3.68 -47 2.36 -47 1 C-31.49 0.67 -15.98 0.34 0 0 Z " fill="#C4D1F8" transform="translate(403,232)"/>
<path d="M0 0 C4.29 0 8.58 0 13 0 C12.67 0.66 12.34 1.32 12 2 C14.97 2.33 17.94 2.66 21 3 C21 18.18 21 33.36 21 49 C20.34 49 19.68 49 19 49 C19 34.15 19 19.3 19 4 C11.08 4 3.16 4 -5 4 C-5 3.67 -5 3.34 -5 3 C-3.35 2.67 -1.7 2.34 0 2 C0 1.34 0 0.68 0 0 Z " fill="#BACCEF" transform="translate(858,208)"/>
<path d="M0 0 C8.58 0 17.16 0 26 0 C25.34 1.98 24.68 3.96 24 6 C23.34 5.67 22.68 5.34 22 5 C22 4.34 22 3.68 22 3 C19.29139876 3.14176421 16.58319248 3.28828216 13.875 3.4375 C13.11445313 3.47681641 12.35390625 3.51613281 11.5703125 3.55664062 C7.31490797 3.79509002 3.19629174 4.20230237 -1 5 C-0.67 3.35 -0.34 1.7 0 0 Z " fill="#1837D5" transform="translate(298,212)"/>
<path d="M0 0 C5.63914151 -0.20139791 10.90844476 0.21230075 16.5 1 C25.01752523 2.18934733 33.41588834 2.19123021 42 2 C42 2.66 42 3.32 42 4 C33.42 4 24.84 4 16 4 C15.67 4.66 15.34 5.32 15 6 C11.7 6 8.4 6 5 6 C4.67 6.66 4.34 7.32 4 8 C4 6.68 4 5.36 4 4 C5.32 3.67 6.64 3.34 8 3 C5.36 2.34 2.72 1.68 0 1 C0 0.67 0 0.34 0 0 Z " fill="#F6DDE3" transform="translate(32,290)"/>
<path d="M0 0 C3.08301416 -0.11644156 6.16546123 -0.18732432 9.25 -0.25 C10.12269531 -0.28351563 10.99539063 -0.31703125 11.89453125 -0.3515625 C18.41598332 -0.45112665 18.41598332 -0.45112665 21.609375 2.015625 C22.06828125 2.67046875 22.5271875 3.3253125 23 4 C22.67 4.66 22.34 5.32 22 6 C21.67 5.67 21.34 5.34 21 5 C19.58429877 4.91348389 18.164405 4.89295096 16.74609375 4.90234375 C15.46508789 4.90717773 15.46508789 4.90717773 14.15820312 4.91210938 C12.81145508 4.92467773 12.81145508 4.92467773 11.4375 4.9375 C10.53580078 4.94201172 9.63410156 4.94652344 8.70507812 4.95117188 C6.46998686 4.96299775 4.23502563 4.9794778 2 5 C1.34 3.35 0.68 1.7 0 0 Z " fill="#1B37CE" transform="translate(744,212)"/>
<path d="M0 0 C9.57 0 19.14 0 29 0 C31 8 31 8 30 10 C29.01 10 28.02 10 27 10 C27 7.69 27 5.38 27 3 C18.42 3 9.84 3 1 3 C0.67 2.01 0.34 1.02 0 0 Z " fill="#2144E2" transform="translate(671,212)"/>
<path d="M0 0 C8.25 0 16.5 0 25 0 C25.33 0.99 25.66 1.98 26 3 C25.31373535 3.02505615 24.6274707 3.0501123 23.92041016 3.07592773 C20.82174183 3.19171427 17.72339077 3.31451885 14.625 3.4375 C13.54476562 3.47681641 12.46453125 3.51613281 11.3515625 3.55664062 C10.3203125 3.59853516 9.2890625 3.64042969 8.2265625 3.68359375 C7.27346191 3.72025146 6.32036133 3.75690918 5.33837891 3.79467773 C2.97867651 3.85763465 2.97867651 3.85763465 1 5 C0.67 3.35 0.34 1.7 0 0 Z " fill="#1733D7" transform="translate(226,212)"/>
<path d="M0 0 C-1.51896368 4.43170173 -3.92639809 8.03024076 -6.625 11.8125 C-7.04523438 12.40998047 -7.46546875 13.00746094 -7.8984375 13.62304688 C-8.92779728 15.08520565 -9.9632823 16.54304899 -11 18 C-11.33 16.68 -11.66 15.36 -12 14 C-11.34 14 -10.68 14 -10 14 C-10 13.34 -10 12.68 -10 12 C-10.763125 12.495 -11.52625 12.99 -12.3125 13.5 C-15 15 -15 15 -18 15 C-16.54782324 13.49403892 -15.08807139 11.99537896 -13.625 10.5 C-12.81289062 9.6646875 -12.00078125 8.829375 -11.1640625 7.96875 C-9 6 -9 6 -7 6 C-6.731875 5.38125 -6.46375 4.7625 -6.1875 4.125 C-4.67436553 1.41728569 -3.21502868 0 0 0 Z " fill="#D84162" transform="translate(212,172)"/>
<path d="M0 0 C0.66 0 1.32 0 2 0 C2 12.54 2 25.08 2 38 C-0.41176954 34.38234569 -0.29056867 32.5583743 -0.37890625 28.25 C-0.39590073 27.59547852 -0.4128952 26.94095703 -0.43040466 26.26660156 C-0.48346122 24.17783212 -0.5237866 22.08908061 -0.5625 20 C-0.60650127 17.91102154 -0.65327703 15.82219271 -0.70530701 13.73339844 C-0.75174926 11.83802969 -0.78929935 9.9424493 -0.82641602 8.046875 C-0.86913302 4.95634139 -0.86913302 4.95634139 -2 2 C-1.34 2 -0.68 2 0 2 C0 1.34 0 0.68 0 0 Z " fill="#0F29E5" transform="translate(874,218)"/>
<path d="M0 0 C-0.25 1.875 -0.25 1.875 -1 4 C-8.40816402 8.45801021 -18.61349832 8.90234512 -27 8 C-27.66 7.34 -28.32 6.68 -29 6 C-27.67548828 5.96132813 -27.67548828 5.96132813 -26.32421875 5.921875 C-17.29171427 5.49498972 -8.2731612 0 0 0 Z " fill="#E25773" transform="translate(89,292)"/>
<path d="M0 0 C0.33 0 0.66 0 1 0 C1 4.29 1 8.58 1 13 C7.6 13.33 14.2 13.66 21 14 C21 14.33 21 14.66 21 15 C12.75 15 4.5 15 -4 15 C-3.33286829 10.99720973 -2.7351151 7.84859116 -1.4375 4.125 C-1.16808594 3.34382813 -0.89867187 2.56265625 -0.62109375 1.7578125 C-0.41613281 1.17773438 -0.21117187 0.59765625 0 0 Z " fill="#485EDA" transform="translate(639,305)"/>
<path d="M0 0 C1.46015291 0.28241641 2.91809793 0.57626614 4.375 0.875 C5.18710937 1.03742188 5.99921875 1.19984375 6.8359375 1.3671875 C9 2 9 2 11 4 C11 4.99 11 5.98 11 7 C11.61875 7.103125 12.2375 7.20625 12.875 7.3125 C15 8 15 8 17 11 C17.07905064 13.33199388 17.08798769 15.66832622 17 18 C15.6953199 16.04297985 14.42257633 14.06417543 13.1875 12.0625 C9.61335771 7.05870079 5.52293818 4.56880846 0 2 C0 1.34 0 0.68 0 0 Z " fill="#C6D8EC" transform="translate(615,263)"/>
<path d="M0 0 C0.66 0.99 1.32 1.98 2 3 C-1.50285874 5.33523916 -2.65629938 5.18495942 -6.76171875 4.9765625 C-7.87998047 4.925 -8.99824219 4.8734375 -10.15039062 4.8203125 C-11.31763672 4.75585938 -12.48488281 4.69140625 -13.6875 4.625 C-14.86634766 4.56828125 -16.04519531 4.5115625 -17.25976562 4.453125 C-20.17378352 4.31155328 -23.08695257 4.16013058 -26 4 C-26.33 3.34 -26.66 2.68 -27 2 C-18.09 2 -9.18 2 0 2 C0 1.34 0 0.68 0 0 Z " fill="#AFBDEE" transform="translate(946,317)"/>
<path d="M0 0 C2.71456107 4.07184161 4.07159223 8.40162518 5.6875 13 C6.02072266 13.91523438 6.35394531 14.83046875 6.69726562 15.7734375 C7.00728516 16.65257812 7.31730469 17.53171875 7.63671875 18.4375 C8.06537231 19.64212891 8.06537231 19.64212891 8.50268555 20.87109375 C9 23 9 23 8 26 C7.34 26 6.68 26 6 26 C5.67 24.35 5.34 22.7 5 21 C4.67 21 4.34 21 4 21 C4 18.69 4 16.38 4 14 C3.34 14 2.68 14 2 14 C2 12.02 2 10.04 2 8 C1.34 8 0.68 8 0 8 C0 5.36 0 2.72 0 0 Z " fill="#223EB9" transform="translate(718,268)"/>
<path d="M0 0 C6.06025967 3.75158932 11.17004139 7.75072023 16 13 C14.68 13.33 13.36 13.66 12 14 C12 13.34 12 12.68 12 12 C11.34 12 10.68 12 10 12 C10 11.34 10 10.68 10 10 C9.34 10 8.68 10 8 10 C8 9.34 8 8.68 8 8 C6.68 8 5.36 8 4 8 C4 7.34 4 6.68 4 6 C3.34 6 2.68 6 2 6 C2 5.34 2 4.68 2 4 C1.34 4 0.68 4 0 4 C0 2.68 0 1.36 0 0 Z " fill="#FBD8ED" transform="translate(16,276)"/>
<path d="M0 0 C0.33 0 0.66 0 1 0 C1 2.64 1 5.28 1 8 C0.34 8 -0.32 8 -1 8 C-1.66 12.95 -2.32 17.9 -3 23 C-4.65 23.66 -6.3 24.32 -8 25 C-5.56541729 16.58782396 -2.79856214 8.29613284 0 0 Z " fill="#1A3AB8" transform="translate(663,235)"/>
<path d="M0 0 C2.35448165 2.55068845 2.98327924 3.71017358 3.1875 7.25 C3.125625 8.1575 3.06375 9.065 3 10 C1.68 10.33 0.36 10.66 -1 11 C-1.33 12.65 -1.66 14.3 -2 16 C-2.33 16 -2.66 16 -3 16 C-3.37952295 9.80112515 -2.8352113 5.5522888 0 0 Z " fill="#D4E3EC" transform="translate(685,238)"/>
<path d="M0 0 C0.99 0 1.98 0 3 0 C3 0.66 3 1.32 3 2 C4.32 2.33 5.64 2.66 7 3 C7.66 5.31 8.32 7.62 9 10 C9.66 10 10.32 10 11 10 C11.66 11.98 12.32 13.96 13 16 C13.66 16 14.32 16 15 16 C15.66 17.65 16.32 19.3 17 21 C12.21762803 17.61951072 9.10363471 13.48218597 5.6875 8.8125 C5.13771484 8.07580078 4.58792969 7.33910156 4.02148438 6.58007812 C0 1.14982531 0 1.14982531 0 0 Z " fill="#1A30B2" transform="translate(799,296)"/>
<path d="M0 0 C0.33 0 0.66 0 1 0 C1 2.31 1 4.62 1 7 C0.34 7 -0.32 7 -1 7 C-1 7.66 -1 8.32 -1 9 C-1.66 9 -2.32 9 -3 9 C-3.12375 9.515625 -3.2475 10.03125 -3.375 10.5625 C-4.18641628 13.72702351 -5.0945913 16.86124985 -6 20 C-7.32 20.33 -8.64 20.66 -10 21 C-8.51991304 15.99886406 -6.3681664 11.67084403 -3.875 7.125 C-3.50246094 6.43664062 -3.12992187 5.74828125 -2.74609375 5.0390625 C-1.83500474 3.35705202 -0.91809685 1.67819564 0 0 Z " fill="#CBE5EE" transform="translate(299,259)"/>
<path d="M0 0 C0.33 0.66 0.66 1.32 1 2 C-4.05352742 7.96348734 -9.41711741 13.53105379 -15 19 C-15.66 18.67 -16.32 18.34 -17 18 C-11.65611545 11.66519646 -5.91166188 5.80460966 0 0 Z " fill="#D54C67" transform="translate(128,253)"/>
<path d="M0 0 C0.66 0 1.32 0 2 0 C1.54975187 4.41243169 0.69719317 7.999098 -1.16796875 12.0234375 C-2.79673674 15.89271733 -3.85556872 19.96608265 -5 24 C-5.33 24 -5.66 24 -6 24 C-6 22.02 -6 20.04 -6 18 C-5.34 18 -4.68 18 -4 18 C-4 14.04 -4 10.08 -4 6 C-3.01 5.67 -2.02 5.34 -1 5 C-0.67 3.35 -0.34 1.7 0 0 Z " fill="#D0E1F9" transform="translate(660,238)"/>
<path d="M0 0 C0.33 1.32 0.66 2.64 1 4 C2.65 4.33 4.3 4.66 6 5 C6.33 6.32 6.66 7.64 7 9 C4.4522472 8.52819393 2.79422776 7.87337093 0.5625 6.5 C-2.03026793 4.98228219 -4.04929976 4.42152861 -7 4 C-7 3.01 -7 2.02 -7 1 C-4.53721199 -0.231394 -2.7204945 -0.07159196 0 0 Z " fill="#D93364" transform="translate(10,267)"/>
<path d="M0 0 C8.58 0 17.16 0 26 0 C24.80655062 4.77379752 23.20354235 6.38574709 20 10 C19.67 8.68 19.34 7.36 19 6 C19.66 6 20.32 6 21 6 C21 5.34 21 4.68 21 4 C21.66 4 22.32 4 23 4 C23 3.01 23 2.02 23 1 C15.41 1 7.82 1 0 1 C0 0.67 0 0.34 0 0 Z " fill="#273ED0" transform="translate(917,212)"/>
<path d="M0 0 C0.66 0.33 1.32 0.66 2 1 C1.01 1.33 0.02 1.66 -1 2 C-1 2.66 -1 3.32 -1 4 C-7.6 4 -14.2 4 -21 4 C-21 3.34 -21 2.68 -21 2 C-19.73542969 1.93941406 -18.47085938 1.87882812 -17.16796875 1.81640625 C-15.50780129 1.73199096 -13.84764563 1.64734345 -12.1875 1.5625 C-11.35412109 1.52318359 -10.52074219 1.48386719 -9.66210938 1.44335938 C-8.85966797 1.40146484 -8.05722656 1.35957031 -7.23046875 1.31640625 C-6.12288208 1.26141968 -6.12288208 1.26141968 -4.99291992 1.20532227 C-2.792505 1.05157859 -2.792505 1.05157859 0 0 Z " fill="#EDAFC2" transform="translate(99,330)"/>
<path d="M0 0 C0.66 0.33 1.32 0.66 2 1 C1.236875 1.70125 0.47375 2.4025 -0.3125 3.125 C-2.97872575 5.9772415 -4.36292589 8.49198404 -6 12 C-6.66 12.66 -7.32 13.32 -8 14 C-9.32 14 -10.64 14 -12 14 C-11.1875 12.0625 -11.1875 12.0625 -10 10 C-9.01 9.67 -8.02 9.34 -7 9 C-6.566875 8.13375 -6.566875 8.13375 -6.125 7.25 C-4.61984999 4.23969997 -2.42622037 2.29852456 0 0 Z " fill="#DD4968" transform="translate(107,274)"/>
<path d="M0 0 C0.33 0 0.66 0 1 0 C1 11.22 1 22.44 1 34 C0.01 33.34 -0.98 32.68 -2 32 C-2 31.34 -2 30.68 -2 30 C-1.34 30 -0.68 30 0 30 C0 20.1 0 10.2 0 0 Z " fill="#E4F3FA" transform="translate(810,240)"/>
<path d="M0 0 C0.81670213 3.17308859 1.4694758 5.71366943 1 9 C-0.50023392 11.21887744 -2.16490792 13.02727602 -4 15 C-4.99 14.34 -5.98 13.68 -7 13 C-6.34 13 -5.68 13 -5 13 C-3.25150329 8.6960081 -1.6229639 4.35249409 0 0 Z " fill="#C8DEEF" transform="translate(494,296)"/>
<path d="M0 0 C0.33 0 0.66 0 1 0 C0.45018084 6.04801071 -0.90429574 11.30601106 -3 17 C-3.33 17 -3.66 17 -4 17 C-4.08086147 15.20906809 -4.13912702 13.41710372 -4.1875 11.625 C-4.22230469 10.62726563 -4.25710938 9.62953125 -4.29296875 8.6015625 C-4.14794922 7.31378906 -4.14794922 7.31378906 -4 6 C-3.01 5.34 -2.02 4.68 -1 4 C-0.27617533 1.94074861 -0.27617533 1.94074861 0 0 Z " fill="#DDE7F5" transform="translate(650,268)"/>
<path d="M0 0 C0.33 0 0.66 0 1 0 C1.22185844 2.26955186 1.42705515 4.54073755 1.625 6.8125 C1.74101562 8.07707031 1.85703125 9.34164063 1.9765625 10.64453125 C2 14 2 14 0 17 C-1.75559942 15.24440058 -1.13221919 12.96417558 -1.13671875 10.62890625 C-1.13285156 9.92636719 -1.12898438 9.22382813 -1.125 8.5 C-1.12886719 7.79746094 -1.13273437 7.09492188 -1.13671875 6.37109375 C-1.12661378 1.12661378 -1.12661378 1.12661378 0 0 Z " fill="#1737DE" transform="translate(493,282)"/>
<path d="M0 0 C4.7540859 -0.33168041 7.05646203 0.40556713 11 3 C13.19130534 3.69579454 13.19130534 3.69579454 15 4 C15 4.66 15 5.32 15 6 C16.32 6.33 17.64 6.66 19 7 C17 8 17 8 13.33984375 6.85546875 C11.86936715 6.30753957 10.4020161 5.75116693 8.9375 5.1875 C8.19177734 4.91357422 7.44605469 4.63964844 6.67773438 4.35742188 C1.12767857 2.25535714 1.12767857 2.25535714 0 0 Z " fill="#4160D1" transform="translate(445,272)"/>
<path d="M0 0 C0.66 0.66 1.32 1.32 2 2 C1.67 2.66 1.34 3.32 1 4 C0.77532169 5.53668865 0.59203195 7.07968054 0.4375 8.625 C0.35371094 9.44226563 0.26992188 10.25953125 0.18359375 11.1015625 C0.12300781 11.72804687 0.06242188 12.35453125 0 13 C-0.66 13 -1.32 13 -2 13 C-2.33 13.66 -2.66 14.32 -3 15 C-4.28497537 11.14507389 -3.4052209 9.59653164 -2.0625 5.8125 C-1.68222656 4.72582031 -1.30195312 3.63914063 -0.91015625 2.51953125 C-0.60980469 1.68808594 -0.30945313 0.85664063 0 0 Z " fill="#2038CD" transform="translate(670,215)"/>
<path d="M0 0 C1.24546405 2.49092811 0.7767578 3.41080733 0 6 C-0.99 6 -1.98 6 -3 6 C-3.2475 6.94875 -3.495 7.8975 -3.75 8.875 C-5 12 -5 12 -7.125 13.375 C-7.74375 13.58125 -8.3625 13.7875 -9 14 C-8.41827275 10.0479482 -6.44842259 7.77904947 -3.9375 4.75 C-3.20402344 3.85796875 -2.47054687 2.9659375 -1.71484375 2.046875 C-1.14894531 1.37140625 -0.58304688 0.6959375 0 0 Z " fill="#243ABC" transform="translate(906,224)"/>
<path d="M0 0 C0.99 0.33 1.98 0.66 3 1 C3 1.66 3 2.32 3 3 C2.01 3 1.02 3 0 3 C0 3.66 0 4.32 0 5 C-0.66 5 -1.32 5 -2 5 C-2 5.66 -2 6.32 -2 7 C-2.66 7 -3.32 7 -4 7 C-4 7.66 -4 8.32 -4 9 C-5.32 8.67 -6.64 8.34 -8 8 C-5.36 5.36 -2.72 2.72 0 0 Z " fill="#C9DBF5" transform="translate(888,277)"/>
<path d="M0 0 C3.9252025 3.70090521 6.94580156 7.54959656 10 12 C9.01 12.495 9.01 12.495 8 13 C8 12.34 8 11.68 8 11 C7.01 11 6.02 11 5 11 C4.34 9.02 3.68 7.04 3 5 C2.01 5 1.02 5 0 5 C0 3.35 0 1.7 0 0 Z " fill="#1A35C1" transform="translate(792,251)"/>
<path d="M0 0 C3.72619658 4.62048376 7.36230673 9.30982806 11 14 C10.01 14.33 9.02 14.66 8 15 C7.34 13.02 6.68 11.04 6 9 C5.34 9 4.68 9 4 9 C4 8.34 4 7.68 4 7 C3.34 7 2.68 7 2 7 C2 6.34 2 5.68 2 5 C1.34 5 0.68 5 0 5 C0 3.35 0 1.7 0 0 Z " fill="#1C37B0" transform="translate(768,219)"/>
<path d="M0 0 C0.99 0 1.98 0 3 0 C2.67 1.65 2.34 3.3 2 5 C1.01 5.33 0.02 5.66 -1 6 C-1.33 6.99 -1.66 7.98 -2 9 C-2.99 8.67 -3.98 8.34 -5 8 C-4.24266726 6.6589523 -3.46867264 5.32730219 -2.6875 4 C-2.25824219 3.2575 -1.82898438 2.515 -1.38671875 1.75 C-0.70029297 0.88375 -0.70029297 0.88375 0 0 Z " fill="#EADBE6" transform="translate(157,254)"/>
<path d="M0 0 C3.47132095 1.40929697 4.88093274 2.90605083 6.75 6.125 C7.39195312 7.21167969 7.39195312 7.21167969 8.046875 8.3203125 C8.51867187 9.15175781 8.51867187 9.15175781 9 10 C7.35 9.67 5.7 9.34 4 9 C3.67 7.35 3.34 5.7 3 4 C2.01 3.67 1.02 3.34 0 3 C0 2.01 0 1.02 0 0 Z " fill="#233FCB" transform="translate(904,261)"/>
<path d="M0 0 C2.93200474 2.85276137 5.64315404 5.65079784 8 9 C6.02 9 4.04 9 2 9 C2 7.68 2 6.36 2 5 C1.34 5 0.68 5 0 5 C0 3.35 0 1.7 0 0 Z " fill="#D7EBF2" transform="translate(768,258)"/>
<path d="M0 0 C2.475 0.99 2.475 0.99 5 2 C5 2.66 5 3.32 5 4 C6.32 4 7.64 4 9 4 C9 4.99 9 5.98 9 7 C9.99 7 10.98 7 12 7 C12 7.66 12 8.32 12 9 C10.02 8.34 8.04 7.68 6 7 C6 6.34 6 5.68 6 5 C5.195625 4.731875 4.39125 4.46375 3.5625 4.1875 C2.716875 3.795625 1.87125 3.40375 1 3 C0.67 2.01 0.34 1.02 0 0 Z " fill="#2E46BE" transform="translate(423,260)"/>
<path d="M0 0 C0.33 1.32 0.66 2.64 1 4 C0.01 4.66 -0.98 5.32 -2 6 C-2.72965366 8.56282742 -2.72965366 8.56282742 -3 11 C-4.65 11 -6.3 11 -8 11 C-7.59007812 10.45730469 -7.18015625 9.91460937 -6.7578125 9.35546875 C-6.21898437 8.64003906 -5.68015625 7.92460937 -5.125 7.1875 C-4.59132813 6.47980469 -4.05765625 5.77210938 -3.5078125 5.04296875 C-2.29185219 3.39543703 -1.13583859 1.70375789 0 0 Z " fill="#C5D7F1" transform="translate(923,237)"/>
<path d="M0 0 C0.33 0 0.66 0 1 0 C1 1.98 1 3.96 1 6 C0.34 6 -0.32 6 -1 6 C-1 6.66 -1 7.32 -1 8 C-1.66 8 -2.32 8 -3 8 C-2.67 8.99 -2.34 9.98 -2 11 C-3.98 11.99 -3.98 11.99 -6 13 C-4.58707905 8.1725201 -2.57025846 4.2837641 0 0 Z " fill="#C9D9F8" transform="translate(321,218)"/>
<path d="M0 0 C-0.33 1.32 -0.66 2.64 -1 4 C-4.96 4 -8.92 4 -13 4 C-13 3.67 -13 3.34 -13 3 C-2.6 0 -2.6 0 0 0 Z " fill="#C8DCF1" transform="translate(617,316)"/>
<path d="M0 0 C0.66 0 1.32 0 2 0 C4.61895048 4.77573323 3.83119431 8.84434881 3 14 C2.67 14 2.34 14 2 14 C2 10.7 2 7.4 2 4 C1.34 4 0.68 4 0 4 C0 2.68 0 1.36 0 0 Z " fill="#B5C7F0" transform="translate(604,279)"/>
<path d="M0 0 C0.33 0 0.66 0 1 0 C1.25 2.25 1.25 2.25 1 5 C-1 7.3125 -1 7.3125 -3 9 C-3.99 8.34 -4.98 7.68 -6 7 C-5.02433888 5.83040013 -4.044375 4.66438823 -3.0625 3.5 C-2.51722656 2.8503125 -1.97195313 2.200625 -1.41015625 1.53125 C-0.71212891 0.77328125 -0.71212891 0.77328125 0 0 Z " fill="#C8D9F1" transform="translate(914,248)"/>
<path d="M0 0 C1.11375 0.598125 2.2275 1.19625 3.375 1.8125 C4.00148438 2.14894531 4.62796875 2.48539062 5.2734375 2.83203125 C7 4 7 4 9 7 C6.33333333 6.33333333 3.66666667 5.66666667 1 5 C0.67 3.35 0.34 1.7 0 0 Z " fill="#DC3560" transform="translate(59,267)"/>
<path d="M0 0 C1.32 0 2.64 0 4 0 C3.65120368 3.25543229 2.97866739 4.01873107 0.4375 6.25 C-0.366875 6.8275 -1.17125 7.405 -2 8 C-1.33333333 5.33333333 -0.66666667 2.66666667 0 0 Z " fill="#EBEEF1" transform="translate(908,216)"/>
<path d="M0 0 C2.66301184 0.37054896 5.32982351 0.6831994 8 1 C8 1.33 8 1.66 8 2 C5.87527424 2.05386629 3.75016348 2.09273071 1.625 2.125 C-0.15003906 2.15980469 -0.15003906 2.15980469 -1.9609375 2.1953125 C-5 2 -5 2 -7 0 C-4.26924457 -1.36537771 -2.9831552 -0.648512 0 0 Z " fill="#1E3ECB" transform="translate(444,214)"/>
<path d="M0 0 C0.99 0 1.98 0 3 0 C1.50958227 3.79379058 -0.69062512 5.68343758 -4 8 C-4.66 8 -5.32 8 -6 8 C-6 7.34 -6 6.68 -6 6 C-5.34 6 -4.68 6 -4 6 C-4 5.34 -4 4.68 -4 4 C-3.34 4 -2.68 4 -2 4 C-2 3.34 -2 2.68 -2 2 C-1.34 2 -0.68 2 0 2 C0 1.34 0 0.68 0 0 Z " fill="#CC3959" transform="translate(110,320)"/>
<path d="M0 0 C0.99 0 1.98 0 3 0 C3 0.66 3 1.32 3 2 C4.32 2.33 5.64 2.66 7 3 C6.67 4.65 6.34 6.3 6 8 C3.33264727 5.51047079 1.44253657 3.36591866 0 0 Z " fill="#1C37C7" transform="translate(799,296)"/>
<path d="M0 0 C2.64 0.66 5.28 1.32 8 2 C7.34 5.3 6.68 8.6 6 12 C5.67 12 5.34 12 5 12 C5 9.03 5 6.06 5 3 C2.525 2.01 2.525 2.01 0 1 C0 0.67 0 0.34 0 0 Z " fill="#F9C4D9" transform="translate(72,276)"/>
<path d="M0 0 C2 2 2 2 2 5 C1.34 5 0.68 5 0 5 C0 5.66 0 6.32 0 7 C-1.98 7 -3.96 7 -6 7 C-4.36587557 5.29159719 -3.13093906 4.06546953 -1 3 C-0.67 2.01 -0.34 1.02 0 0 Z " fill="#283BB3" transform="translate(602,249)"/>
<path d="M0 0 C0.66 0.33 1.32 0.66 2 1 C1.3125 3.4375 1.3125 3.4375 0 6 C-2.625 6.8125 -2.625 6.8125 -5 7 C-3.70700306 4.11562221 -2.34058637 2.12780579 0 0 Z " fill="#1435C9" transform="translate(429,217)"/>
<path d="M0 0 C2 1.5625 2 1.5625 4 4 C4.25 7.75 4.25 7.75 4 11 C0 5 0 5 0 0 Z " fill="#D5EAE9" transform="translate(628,270)"/>
<path d="M0 0 C3.25543229 0.34879632 4.01873107 1.02133261 6.25 3.5625 C6.8275 4.366875 7.405 5.17125 8 6 C6.68 6 5.36 6 4 6 C4 5.34 4 4.68 4 4 C3.34 4 2.68 4 2 4 C2 3.34 2 2.68 2 2 C1.34 2 0.68 2 0 2 C0 1.34 0 0.68 0 0 Z " fill="#FBCEE4" transform="translate(24,284)"/>
<path d="M0 0 C0.33 0 0.66 0 1 0 C1 1.65 1 3.3 1 5 C-0.65 5.33 -2.3 5.66 -4 6 C-4 6.66 -4 7.32 -4 8 C-4.66 7.67 -5.32 7.34 -6 7 C-5.02433888 5.83040013 -4.044375 4.66438823 -3.0625 3.5 C-2.51722656 2.8503125 -1.97195313 2.200625 -1.41015625 1.53125 C-0.71212891 0.77328125 -0.71212891 0.77328125 0 0 Z " fill="#2845CE" transform="translate(890,243)"/>
<path d="M0 0 C5.57142857 5.14285714 5.57142857 5.14285714 6 9 C5.34 9 4.68 9 4 9 C3.67 8.34 3.34 7.68 3 7 C2.01 7.495 2.01 7.495 1 8 C0.67 5.36 0.34 2.72 0 0 Z " fill="#3047D0" transform="translate(785,241)"/>
<path d="M0 0 C0.66 0 1.32 0 2 0 C2 1.32 2 2.64 2 4 C2.66 4 3.32 4 4 4 C4 6.31 4 8.62 4 11 C1.6870518 8.6870518 1.50419025 7.52095125 0.875 4.375 C0.70742188 3.55773437 0.53984375 2.74046875 0.3671875 1.8984375 C0.24601563 1.27195313 0.12484375 0.64546875 0 0 Z " fill="#D4E4F8" transform="translate(708,236)"/>
<path d="M0 0 C0.66 0 1.32 0 2 0 C3.125 4.75 3.125 4.75 2 7 C1.01 7 0.02 7 -1 7 C-0.67 4.69 -0.34 2.38 0 0 Z " fill="#293CD2" transform="translate(699,215)"/>
<path d="M0 0 C-2 2 -2 2 -4.3828125 2.1953125 C-5.28773438 2.17210937 -6.19265625 2.14890625 -7.125 2.125 C-8.49011719 2.09792969 -8.49011719 2.09792969 -9.8828125 2.0703125 C-10.58148438 2.04710937 -11.28015625 2.02390625 -12 2 C-12 1.67 -12 1.34 -12 1 C-3.96428571 -1.27678571 -3.96428571 -1.27678571 0 0 Z " fill="#C1E1F3" transform="translate(476,318)"/>
<path d="M0 0 C2 1.75 2 1.75 4 4 C4 5.32 4 6.64 4 8 C3.34 8 2.68 8 2 8 C2 7.34 2 6.68 2 6 C1.34 6 0.68 6 0 6 C0 4.02 0 2.04 0 0 Z " fill="#D9EBF0" transform="translate(778,270)"/>
<path d="M0 0 C2 1 2 1 2.6328125 2.84765625 C2.79523437 3.57855469 2.95765625 4.30945313 3.125 5.0625 C3.29257812 5.79597656 3.46015625 6.52945313 3.6328125 7.28515625 C3.75398437 7.85105469 3.87515625 8.41695312 4 9 C3.34 9 2.68 9 2 9 C2 8.34 2 7.68 2 7 C1.34 7 0.68 7 0 7 C0 4.69 0 2.38 0 0 Z " fill="#2539B1" transform="translate(704,229)"/>
<path d="M0 0 C4.29 0 8.58 0 13 0 C13.33 0.99 13.66 1.98 14 3 C12.68 3 11.36 3 10 3 C10 2.34 10 1.68 10 1 C6.7 1 3.4 1 0 1 C0 0.67 0 0.34 0 0 Z " fill="#102ECD" transform="translate(240,215)"/>
<path d="M0 0 C4.875 4.75 4.875 4.75 6 7 C3.13275314 6.42655063 2.1385485 6.1385485 0 4 C0 2.68 0 1.36 0 0 Z " fill="#D1E0F1" transform="translate(804,304)"/>
<path d="M0 0 C0.33 0 0.66 0 1 0 C1.125 6.75 1.125 6.75 0 9 C-0.66 9 -1.32 9 -2 9 C-1.125 2.25 -1.125 2.25 0 0 Z " fill="#1F38B9" transform="translate(295,217)"/>
<path d="M0 0 C0.33 1.32 0.66 2.64 1 4 C0.34 4 -0.32 4 -1 4 C-1 5.32 -1 6.64 -1 8 C-2.32 7.67 -3.64 7.34 -5 7 C-3.35 4.69 -1.7 2.38 0 0 Z " fill="#F7CAD4" transform="translate(195,198)"/>
<path d="M0 0 C3.14624993 -0.26218749 4.61837017 -0.24754367 7.3125 1.5 C8.1478125 2.2425 8.1478125 2.2425 9 3 C6.36 3 3.72 3 1 3 C0.67 2.01 0.34 1.02 0 0 Z " fill="#D5E9F5" transform="translate(453,277)"/>
<path d="M0 0 C2.31 0 4.62 0 7 0 C7.33 1.32 7.66 2.64 8 4 C4.64404172 3.40072174 2.62198774 2.15377564 0 0 Z " fill="#DA5376" transform="translate(9,272)"/>
<path d="M0 0 C4.67692308 1.47692308 4.67692308 1.47692308 6.3125 4.125 C6.539375 4.74375 6.76625 5.3625 7 6 C6.01 6 5.02 6 4 6 C1.8125 3 1.8125 3 0 0 Z " fill="#D5E4F4" transform="translate(799,259)"/>
<path d="M0 0 C1.5 1.25 1.5 1.25 3 3 C3 4.32 3 5.64 3 7 C1.68 7 0.36 7 -1 7 C-0.67 4.69 -0.34 2.38 0 0 Z " fill="#D5E4F5" transform="translate(405,227)"/>
<path d="M0 0 C-0.66 1.65 -1.32 3.3 -2 5 C-5 5 -5 5 -7 4 C-2.25 0 -2.25 0 0 0 Z " fill="#D24B66" transform="translate(212,172)"/>
<path d="M0 0 C0 3 0 3 -1.1875 4.6875 C-3.55741722 6.40364695 -5.14025666 6.23187108 -8 6 C-5.33333333 4 -2.66666667 2 0 0 Z " fill="#CCDAF6" transform="translate(625,310)"/>
<path d="M0 0 C0.66 0 1.32 0 2 0 C2 1.32 2 2.64 2 4 C2.66 4 3.32 4 4 4 C4 4.66 4 5.32 4 6 C2.68 5.67 1.36 5.34 0 5 C-0.5625 3.0625 -0.5625 3.0625 -1 1 C-0.67 0.67 -0.34 0.34 0 0 Z " fill="#132AD0" transform="translate(260,274)"/>
<path d="M0 0 C5.53846154 -0.36923077 5.53846154 -0.36923077 7.875 1.5 C8.24625 1.995 8.6175 2.49 9 3 C2.84765625 2.4140625 2.84765625 2.4140625 1 2 C0.67 1.34 0.34 0.68 0 0 Z " fill="#2945B4" transform="translate(445,272)"/>
<path d="M0 0 C-3.51187196 2.40814077 -5.72656908 3.36629408 -10 3 C-4.375 -1.3125 -4.375 -1.3125 0 0 Z " fill="#DC6E87" transform="translate(26,261)"/>
<path d="M0 0 C0.33 0 0.66 0 1 0 C1 2.97 1 5.94 1 9 C0.34 9 -0.32 9 -1 9 C-1.80967438 6.08517222 -2.21845993 4.53886783 -1.0625 1.6875 C-0.711875 1.130625 -0.36125 0.57375 0 0 Z " fill="#1A37BD" transform="translate(279,249)"/>
<path d="M0 0 C0.66 0.99 1.32 1.98 2 3 C1.01 4.485 1.01 4.485 0 6 C-0.66 6 -1.32 6 -2 6 C-2 6.99 -2 7.98 -2 9 C-2.66 9 -3.32 9 -4 9 C-2.80100302 5.9168649 -1.52299523 2.93720508 0 0 Z " fill="#BED9EA" transform="translate(304,250)"/>
<path d="M0 0 C0.33 0.66 0.66 1.32 1 2 C1.66 2 2.32 2 3 2 C3.33 3.65 3.66 5.3 4 7 C3.01 7.495 3.01 7.495 2 8 C1.01 5.69 0.02 3.38 -1 1 C-0.67 0.67 -0.34 0.34 0 0 Z " fill="#1B35C4" transform="translate(235,228)"/>
<path d="M0 0 C1.32 0.66 2.64 1.32 4 2 C2.35 3.65 0.7 5.3 -1 7 C-0.67 4.69 -0.34 2.38 0 0 Z " fill="#D9E5E9" transform="translate(900,226)"/>
</svg>
